# xmcd
#
# Track frame offsets:
#	150
#	10917
#	27177
#	36822
#	49342
#	63010
#	73495
#	84690
#	98850
#	112285
#	133082
#	143852
#	157060
#	167615
#	186072
#	200420
#	215475
#	230757
#	246342
#	260187
#
# Disc length: 3658 seconds
#
# Revision: 1
# Processed by: cddbd v1.5.2PL0 Copyright (c) Steve Scherf et al.
# Submitted via: EasyCDDAExtractor 16.0.6.1
#
DISCID=350e4814
DTITLE=Flamingokvintetten - Guldkorn - CD 1
DYEAR=2000
DGENRE=Dansmusik
TTITLE0=Happy Birthday Sweet Sixteen
TTITLE1=Monica
TTITLE2=Den Gamla Kastanjeallén
TTITLE3=Sjätte September
TTITLE4=Där Näckrosen Blommar
TTITLE5=Varför
TTITLE6=Nu Är Det Lördag Igen
TTITLE7=Sommaren 68
TTITLE8=Rozamunda
TTITLE9=Mississippi
TTITLE10=Looky Looky
TTITLE11=Jag Ska Måla Hela Världen Lilla Mamma
TTITLE12=Kära Gamla Tuff Tuff Tåg
TTITLE13=Santa Maria
TTITLE14=En Dans På Rosor
TTITLE15=Ja, Det Var Då Min Vän
TTITLE16=Xanadu
TTITLE17=Gammal Sliten Kärlek
TTITLE18=Nidälven
TTITLE19=Luffarpojken
EXTD=
EXTT0=
EXTT1=
EXTT2=
EXTT3=
EXTT4=
EXTT5=
EXTT6=
EXTT7=
EXTT8=
EXTT9=
EXTT10=
EXTT11=
EXTT12=
EXTT13=
EXTT14=
EXTT15=
EXTT16=
EXTT17=
EXTT18=
EXTT19=
PLAYORDER=
